<?xml version="1.0"?>
<!DOCTYPE svg PUBLIC "-//W3C//DTD SVG 1.1//EN" "http://www.w3.org/Graphics/SVG/1.1/DTD/svg11.dtd">
<svg version='1.1' width='34px' height='34px' xmlns='http://www.w3.org/2000/svg' xmlns:xlink='http://www.w3.org/1999/xlink'>
	<g transform="translate(-83,-83)">
		<path d="M 96.55 83.85 L 96.35 83.85 L 94.95 84.3 L 97.05 92.25 Q 97.85 91.95 98.7 91.85 L 98.7 91.8 Z M 100 83.5 Q 99.6 83.5 99.2 83.55 L 99.2 91.8 Q 99.6 91.75 100.05 91.75 Q 100.4 91.75 100.8 91.8 L 100.8 83.55 Q 100.4 83.5 100 83.5 Z M 92.45 85.25 L 92.225 85.4 Q 91.6254 85.7209 91.05 86.1 L 95.15 93.3 Q 95.85 92.8 96.6 92.45 L 92.475 85.275 Z M 85.25 92.45 L 85.275 92.45 L 92.45 96.6 L 92.5 96.6 Q 92.8 95.85 93.3 95.15 L 86.1 91.05 Z M 83.85 96.35 L 83.85 96.55 L 91.85 98.7 Q 92 97.85 92.3 97.1 L 92.25 97.05 L 84.3 94.95 Z M 88.9 87.75 L 87.75 88.9 L 93.6 94.75 Q 93.85 94.45 94.15 94.15 Q 94.45 93.8 94.75 93.6 Z M 99.95 83 Q 107.1 83 112 87.95 Q 117 92.9 117 100 Q 117 106.95 112 111.9 Q 107.1 117 99.95 117 Q 92.9 117 87.9 111.9 Q 83 106.95 83 99.85 Q 83 92.9 87.9 87.95 Q 92.9 83 99.95 83 Z M 91.85 99.2 L 83.55 99.2 Q 83.5 99.6 83.5 100 Q 83.5 100.4 83.55 100.8 L 91.85 100.8 Q 91.8 100.4 91.8 100 Q 91.8 99.6 91.85 99.2 Z M 85.45 107.825 Q 85.4742 107.877 85.5 107.925 L 85.55 108.05 L 85.8 108.4 Q 85.95 108.7 86.15 108.95 L 93.3 104.85 Q 92.8 104.1 92.5 103.4 L 92.45 103.4 L 85.3 107.55 Q 85.3756 107.693 85.45 107.825 Z M 94.15 105.75 Q 93.85 105.5 93.65 105.2 L 87.8 111.05 Q 88 111.3 88.3 111.55 Q 88.3 111.6 88.35 111.65 L 88.5 111.75 Q 88.75 112 89 112.2 L 94.75 106.45 L 94.8 106.35 Q 94.45 106.05 94.15 105.75 Z M 91.85 101.3 L 83.85 103.5 L 84.3 105.05 L 92.3 102.95 Q 92 102.15 91.85 101.3 Z" fill="#FF0000" fill-opacity="0"/>
		<path d="M 92.45 85.25 L 92.475 85.275 L 96.6 92.45 Q 95.85 92.8 95.15 93.3 L 91.05 86.1 Q 91.6254 85.7209 92.225 85.4 Z" fill="#999999" fill-opacity="0.8"/>
		<path d="M 100 83.5 Q 100.4 83.5 100.8 83.55 L 100.8 91.8 Q 100.4 91.75 100.05 91.75 Q 99.6 91.75 99.2 91.8 L 99.2 83.55 Q 99.6 83.5 100 83.5 Z" fill="#999999"/>
		<path d="M 96.55 83.85 L 98.7 91.8 L 98.7 91.85 Q 97.85 91.95 97.05 92.25 L 94.95 84.3 L 96.35 83.85 Z" fill="#999999" fill-opacity="0.901961"/>
		<path d="M 83.85 96.35 L 84.3 94.95 L 92.25 97.05 L 92.3 97.1 Q 92 97.85 91.85 98.7 L 83.85 96.55 Z" fill="#999999" fill-opacity="0.498039"/>
		<path d="M 88.9 87.75 L 94.75 93.6 Q 94.45 93.8 94.15 94.15 Q 93.85 94.45 93.6 94.75 L 87.75 88.9 Z" fill="#999999" fill-opacity="0.694118"/>
		<path d="M 85.25 92.45 L 86.1 91.05 L 93.3 95.15 Q 92.8 95.85 92.5 96.6 L 92.45 96.6 L 85.275 92.45 Z" fill="#999999" fill-opacity="0.6"/>
		<path d="M 91.85 99.2 Q 91.8 99.6 91.8 100 Q 91.8 100.4 91.85 100.8 L 83.55 100.8 Q 83.5 100.4 83.5 100 Q 83.5 99.6 83.55 99.2 Z" fill="#999999" fill-opacity="0.4"/>
		<path d="M 91.85 101.3 Q 92 102.15 92.3 102.95 L 84.3 105.05 L 83.85 103.5 Z" fill="#999999" fill-opacity="0.298039"/>
		<path d="M 94.15 105.75 Q 94.45 106.05 94.8 106.35 L 94.75 106.45 L 89 112.2 Q 88.75 112 88.5 111.75 L 88.35 111.65 Q 88.3 111.6 88.3 111.55 Q 88 111.3 87.8 111.05 L 93.65 105.2 Q 93.85 105.5 94.15 105.75 Z" fill="#999999" fill-opacity="0.0862745"/>
		<path d="M 85.5 107.925 L 85.5 107.9 Q 85.4723 107.863 85.45 107.825 Q 85.3756 107.693 85.3 107.55 L 92.45 103.4 L 92.5 103.4 Q 92.8 104.1 93.3 104.85 L 86.15 108.95 Q 85.95 108.7 85.8 108.4 L 85.55 108.05 Z" fill="#999999" fill-opacity="0.2"/>
		<path d="M 85.5 107.925 Q 85.4742 107.877 85.45 107.825 Q 85.4723 107.863 85.5 107.9 Z" fill="#00FF00" fill-opacity="0"/>
	</g>
</svg>
