<?xml version="1.0"?>
<!DOCTYPE svg PUBLIC "-//W3C//DTD SVG 1.1//EN" "http://www.w3.org/Graphics/SVG/1.1/DTD/svg11.dtd">
<svg version='1.1' width='14px' height='14px' xmlns='http://www.w3.org/2000/svg' xmlns:xlink='http://www.w3.org/1999/xlink'>
	<g transform="translate(-144.1,-110.35)">
		<path d="M 156.2 116.95 Q 156.2 116.05 155.9 115.2 L 152.9 122 Q 154.4 121.35 155.3 120 Q 156.2 118.6 156.2 116.95 Z M 150.7 118.45 L 149.05 122.2 Q 149.85 122.45 150.7 122.45 Q 151.55 122.45 152.35 122.2 Z M 145.5 115.2 Q 145.2 116.05 145.2 116.95 Q 145.2 118.6 146.1 120 Q 147 121.35 148.5 122 Z M 149.15 111.65 L 150.7 115.1 L 152.25 111.65 Q 151.5 111.45 150.7 111.45 Q 149.9 111.45 149.15 111.65 Z M 149.9 116.65 L 147.9 112.2 Q 146.95 112.75 146.3 113.65 L 148.8 119.35 L 149.8 117.05 L 151.55 117.05 L 152.6 119.35 L 155.1 113.65 Q 154.45 112.75 153.5 112.2 L 151.5 116.65 Z M 148.15 110.85 Q 149.35 110.35 150.7 110.35 Q 152.05 110.35 153.25 110.85 Q 154.45 111.35 155.4 112.25 Q 156.3 113.2 156.8 114.4 Q 157.3 115.6 157.3 116.95 Q 157.3 118.3 156.8 119.5 Q 156.3 120.7 155.4 121.65 Q 154.45 122.55 153.25 123.05 Q 152.05 123.55 150.7 123.55 Q 149.35 123.55 148.15 123.05 Q 146.95 122.55 146 121.65 Q 145.1 120.7 144.6 119.5 Q 144.1 118.3 144.1 116.95 Q 144.1 115.6 144.6 114.4 Q 145.1 113.2 146 112.25 Q 146.95 111.35 148.15 110.85 Z" fill="#999999"/>
	</g>
</svg>
