<?xml version="1.0"?>
<!DOCTYPE svg PUBLIC "-//W3C//DTD SVG 1.1//EN" "http://www.w3.org/Graphics/SVG/1.1/DTD/svg11.dtd">
<svg version='1.1' width='36px' height='11px' xmlns='http://www.w3.org/2000/svg' xmlns:xlink='http://www.w3.org/1999/xlink'>
	<g transform="translate(-132.05,-137.7)">
		<path d="M 164.5 141.05 Q 164.9 140.85 165.35 140.85 Q 165.85 140.85 166.25 141.05 Q 166.65 141.2 166.85 141.55 L 166.85 140.95 L 168.05 140.95 L 168.05 145.3 Q 168.05 146 167.95 146.45 Q 167.8 146.9 167.45 147.25 Q 167.15 147.6 166.65 147.7 Q 166.2 147.85 165.6 147.85 Q 164.55 147.85 164 147.35 Q 163.4 146.85 163.4 146.05 L 164.55 146.05 Q 164.55 146.45 164.85 146.7 Q 165.15 146.95 165.65 146.95 Q 166.3 146.95 166.55 146.65 Q 166.85 146.3 166.85 145.55 L 166.85 144.9 Q 166.6 145.2 166.2 145.4 Q 165.8 145.55 165.35 145.55 Q 164.85 145.55 164.45 145.4 Q 164.05 145.2 163.75 144.9 Q 163.45 144.55 163.3 144.15 Q 163.15 143.75 163.15 143.25 Q 163.15 142.75 163.35 142.3 Q 163.5 141.85 163.8 141.55 Q 164.1 141.2 164.5 141.05 Z M 166.15 142 Q 165.95 141.9 165.65 141.9 Q 165.35 141.9 165.1 142 Q 164.9 142.1 164.7 142.25 Q 164.55 142.45 164.45 142.7 Q 164.35 142.9 164.35 143.2 Q 164.35 143.75 164.7 144.15 Q 165.1 144.55 165.65 144.55 Q 165.95 144.55 166.15 144.4 Q 166.4 144.3 166.55 144.15 Q 166.75 143.95 166.85 143.7 Q 166.9 143.45 166.9 143.2 Q 166.9 142.95 166.85 142.7 Q 166.75 142.45 166.55 142.25 Q 166.4 142.1 166.15 142 Z M 162.05 145.6 L 160.85 145.6 L 160.85 142.95 Q 160.85 142.5 160.65 142.2 Q 160.45 141.9 160 141.9 Q 159.8 141.9 159.6 142 Q 159.4 142.05 159.25 142.2 Q 159.1 142.35 159 142.55 Q 158.9 142.8 158.9 143.1 L 158.9 145.6 L 157.7 145.6 L 157.7 140.95 L 158.9 140.95 L 158.9 141.6 Q 159.1 141.35 159.45 141.1 Q 159.8 140.9 160.4 140.9 Q 160.8 140.9 161.1 141 Q 161.4 141.15 161.6 141.35 Q 161.85 141.55 161.95 141.9 Q 162.05 142.2 162.05 142.7 Z M 138.6 142 Q 138.35 142.1 138.2 142.3 Q 138 142.5 137.9 142.75 Q 137.8 143 137.8 143.3 Q 137.8 143.6 137.9 143.85 Q 138.05 144.1 138.2 144.3 Q 138.4 144.45 138.65 144.6 Q 138.9 144.7 139.15 144.7 Q 139.45 144.7 139.7 144.6 Q 139.95 144.45 140.1 144.25 Q 140.3 144.1 140.4 143.8 Q 140.5 143.55 140.5 143.3 Q 140.5 143 140.4 142.75 Q 140.3 142.5 140.1 142.3 Q 139.9 142.1 139.7 142 Q 139.4 141.9 139.15 141.9 Q 138.85 141.9 138.6 142 Z M 139.15 140.85 Q 139.7 140.85 140.15 141.05 Q 140.65 141.2 140.95 141.55 Q 141.3 141.85 141.5 142.3 Q 141.7 142.75 141.7 143.3 Q 141.7 143.75 141.5 144.2 Q 141.3 144.65 141 145 Q 140.65 145.35 140.15 145.5 Q 139.7 145.7 139.1 145.7 Q 138.6 145.7 138.1 145.55 Q 137.65 145.35 137.35 145.05 Q 137 144.7 136.8 144.25 Q 136.6 143.8 136.6 143.3 Q 136.6 142.8 136.8 142.35 Q 137 141.9 137.35 141.55 Q 137.65 141.25 138.15 141.05 Q 138.6 140.85 139.15 140.85 Z M 133.4 138.1 L 133.4 144.4 L 135.9 144.4 L 135.9 145.6 L 132.05 145.6 L 132.05 138.1 Z M 151.25 141.9 Q 150.95 141.9 150.7 142.05 Q 150.45 142.15 150.25 142.35 Q 150.1 142.5 150 142.8 Q 149.9 143.05 149.9 143.3 Q 149.9 143.65 150 143.9 Q 150.1 144.15 150.3 144.3 Q 150.5 144.5 150.7 144.6 Q 150.95 144.7 151.2 144.7 Q 151.5 144.7 151.75 144.6 Q 152 144.45 152.15 144.3 Q 152.35 144.1 152.45 143.85 Q 152.55 143.6 152.55 143.3 Q 152.55 142.95 152.45 142.7 Q 152.35 142.45 152.15 142.3 Q 152 142.1 151.75 142 Q 151.5 141.9 151.25 141.9 Z M 151 140.9 Q 151.45 140.9 151.85 141.05 Q 152.25 141.2 152.5 141.55 L 152.5 137.7 L 153.7 137.7 L 153.7 145.6 L 152.5 145.6 L 152.5 145 Q 152.25 145.3 151.85 145.5 Q 151.45 145.7 150.9 145.7 Q 150.4 145.7 150 145.55 Q 149.6 145.35 149.3 145.05 Q 149 144.7 148.85 144.25 Q 148.7 143.85 148.7 143.3 Q 148.7 142.8 148.85 142.4 Q 149.05 141.95 149.35 141.6 Q 149.65 141.25 150.1 141.1 Q 150.5 140.9 151 140.9 Z M 145.1 141.9 Q 144.85 141.9 144.6 142 Q 144.35 142.1 144.2 142.25 Q 144 142.45 143.9 142.7 Q 143.8 142.95 143.8 143.25 Q 143.8 143.55 143.9 143.8 Q 144 144.1 144.2 144.25 Q 144.35 144.45 144.6 144.6 Q 144.85 144.7 145.15 144.7 Q 145.45 144.7 145.7 144.6 Q 145.95 144.45 146.1 144.3 Q 146.3 144.1 146.35 143.85 Q 146.45 143.6 146.45 143.3 Q 146.45 142.7 146.1 142.3 Q 145.7 141.9 145.1 141.9 Z M 143.95 141.05 Q 144.4 140.85 144.9 140.85 Q 145.4 140.85 145.75 141.05 Q 146.15 141.25 146.4 141.55 L 146.4 140.95 L 147.6 140.95 L 147.6 145.6 L 146.4 145.6 L 146.4 145.05 Q 146.15 145.35 145.75 145.55 Q 145.35 145.7 144.85 145.7 Q 144.35 145.7 143.95 145.55 Q 143.5 145.35 143.2 145.05 Q 142.95 144.75 142.75 144.3 Q 142.6 143.85 142.6 143.35 Q 142.6 142.8 142.75 142.35 Q 142.95 141.9 143.25 141.55 Q 143.55 141.25 143.95 141.05 Z M 155.1 138.6 Q 155.3 138.35 155.65 138.35 Q 155.95 138.35 156.2 138.6 Q 156.4 138.85 156.4 139.15 Q 156.4 139.5 156.2 139.7 Q 155.95 139.95 155.65 139.95 Q 155.3 139.95 155.1 139.7 Q 154.85 139.5 154.85 139.15 Q 154.85 138.85 155.1 138.6 Z M 156.25 140.95 L 156.25 145.6 L 155.05 145.6 L 155.05 140.95 Z" fill="#999999"/>
	</g>
</svg>
